<?xml version="1.0" encoding="UTF-8"?>
<svg id="Layer_1" xmlns="http://www.w3.org/2000/svg" version="1.1" viewBox="0 0 120 90">
  <!-- Generator: Adobe Illustrator 30.0.0, SVG Export Plug-In . SVG Version: 2.1.1 Build 123)  -->
  <defs>
    <style>
      .st0 {
        fill: #58aa50;
      }

      .st1 {
        fill: #a6a385;
      }

      .st2 {
        fill: #499d4a;
      }
    </style>
  </defs>
  <g id="Group">
    <path id="Shape" class="st1" d="M60.46,88.79l-2.29-.78s.28-11.67-3.91-12.51c-2.79-3.24.45-137.38,10.5-.45,0,0-3.46,1.73-4.08,4.69-.67,2.9-.22,9.05-.22,9.05Z"/>
    <path id="Shape1" data-name="Shape" class="st2" d="M61.69,77.51s20.05-13.18,15.36-40.6c-4.52-19.94-15.19-26.47-16.36-28.98-1.28-1.79-2.51-4.91-2.51-4.91l.84,55.45c0,.06-1.73,16.98,2.68,19.04"/>
    <path id="Shape2" data-name="Shape" class="st0" d="M57,78.24s-18.82-12.84-17.7-35.46c1.06-22.62,14.35-33.73,16.92-35.74,1.68-1.79,1.73-2.46,1.84-4.24,1.17,2.51.95,37.59,1.12,41.72.5,15.92-.89,30.72-2.18,33.73Z"/>
  </g>
</svg>