<?xml version="1.0" encoding="UTF-8"?>
<svg id="Layer_1" xmlns="http://www.w3.org/2000/svg" version="1.1" viewBox="0 0 120 90">
  <!-- Generator: Adobe Illustrator 30.0.0, SVG Export Plug-In . SVG Version: 2.1.1 Build 123)  -->
  <defs>
    <style>
      .st0 {
        fill: #ff2d20;
      }
    </style>
  </defs>
  <path class="st0" d="M102.51,21.01c.03.12.05.24.05.36v18.81c0,.49-.26.95-.69,1.19l-15.78,9.09v18.01c0,.49-.26.94-.69,1.19l-32.95,18.97c-.08.04-.16.07-.24.1-.03.01-.06.03-.09.04-.23.06-.47.06-.7,0-.04-.01-.07-.03-.11-.04-.08-.03-.15-.05-.23-.09l-32.94-18.97c-.43-.24-.69-.7-.69-1.19V12.05c0-.12.02-.24.05-.36.01-.04.03-.08.05-.11.03-.07.05-.15.09-.21.03-.04.06-.08.09-.12.04-.05.08-.11.12-.16.04-.04.09-.07.14-.1.05-.04.09-.09.15-.12h0L34.6,1.37c.42-.24.95-.24,1.37,0l16.47,9.48h0c.05.03.1.08.15.12.04.03.09.07.13.1.05.05.08.11.12.16.03.04.07.08.09.12.04.07.06.14.09.21.01.04.04.08.05.12.03.12.05.24.05.36v35.24l13.73-7.9v-18.01c0-.12.02-.24.05-.36.01-.04.03-.08.05-.12.03-.07.05-.15.09-.21.03-.04.06-.08.09-.12.04-.05.08-.11.12-.16.04-.04.09-.07.13-.1.05-.04.1-.09.15-.12h0l16.47-9.48c.42-.24.95-.24,1.37,0l16.47,9.48c.06.03.1.08.15.12.04.03.09.07.13.1.05.05.08.11.12.16.03.04.07.08.09.12.04.07.06.14.09.21.02.04.04.08.05.12ZM99.81,39.38v-15.64l-5.76,3.32-7.96,4.59v15.64l13.73-7.9h0ZM83.34,67.67v-15.65l-7.83,4.47-22.37,12.77v15.8l30.2-17.39ZM20.19,14.42v53.25l30.2,17.39v-15.79l-15.78-8.93h0s0,0,0,0c-.05-.03-.1-.08-.15-.11-.04-.03-.09-.06-.13-.1h0s-.08-.1-.11-.15c-.03-.05-.08-.09-.1-.13h0c-.03-.06-.05-.12-.07-.18-.02-.05-.05-.1-.07-.15h0c-.02-.07-.02-.14-.03-.2,0-.05-.02-.1-.02-.15h0V22.33l-7.96-4.59-5.76-3.32h0ZM35.29,4.15l-13.72,7.9,13.72,7.9,13.72-7.9-13.72-7.9h0ZM42.43,53.45l7.96-4.58V14.42l-5.76,3.32-7.96,4.59v34.45l5.77-3.32ZM84.71,13.47l-13.72,7.9,13.72,7.9,13.72-7.9-13.72-7.9ZM83.34,31.65l-7.96-4.59-5.76-3.32v15.64l7.96,4.58,5.77,3.32v-15.64ZM51.76,66.89l20.13-11.49,10.06-5.74-13.71-7.9-15.79,9.09-14.39,8.28,13.7,7.75Z"/>
</svg>