<?xml version="1.0" encoding="UTF-8"?>
<svg id="Layer_1" xmlns="http://www.w3.org/2000/svg" version="1.1" viewBox="0 0 120 90">
  <!-- Generator: Adobe Illustrator 30.0.0, SVG Export Plug-In . SVG Version: 2.1.1 Build 123)  -->
  <defs>
    <style>
      .st0 {
        fill: #f8981d;
      }

      .st1 {
        fill: #5d87a1;
      }
    </style>
  </defs>
  <path class="st1" d="M29.16,80.13h-4.44c-.16-7.49-.59-14.53-1.3-21.12h-.04l-6.75,21.12h-3.38l-6.71-21.12h-.04c-.5,6.33-.81,13.37-.94,21.12H1.51c.26-9.42.92-18.26,1.96-26.51h5.5l6.4,19.48h.04l6.44-19.48h5.26c1.15,9.66,1.83,18.5,2.04,26.51M48.39,60.58c-1.81,9.8-4.19,16.92-7.15,21.37-2.3,3.42-4.83,5.13-7.58,5.13-.73,0-1.64-.22-2.71-.66v-2.36c.52.08,1.14.12,1.84.12,1.28,0,2.32-.35,3.1-1.06.94-.86,1.41-1.83,1.41-2.9,0-.74-.37-2.24-1.1-4.52l-4.87-15.12h4.36l3.49,11.31c.79,2.57,1.11,4.36.98,5.38,1.91-5.1,3.25-10.67,4.01-16.69h4.2Z"/>
  <path class="st0" d="M107.45,80.13h-12.6v-26.51h4.24v23.24h8.36v3.26ZM91.55,80.77l-4.87-2.4c.43-.35.85-.74,1.22-1.18,2.07-2.43,3.1-6.03,3.1-10.8,0-8.77-3.44-13.16-10.33-13.16-3.38,0-6.01,1.11-7.89,3.34-2.07,2.43-3.1,6.02-3.1,10.76s.92,8.08,2.75,10.25c1.68,1.96,4.2,2.95,7.58,2.95,1.26,0,2.42-.15,3.47-.47l6.34,3.69,1.73-2.98ZM75.76,74.83c-1.07-1.73-1.61-4.5-1.61-8.32,0-6.67,2.03-10.01,6.09-10.01,2.12,0,3.68.8,4.67,2.39,1.07,1.73,1.61,4.48,1.61,8.25,0,6.73-2.03,10.09-6.09,10.09-2.12,0-3.68-.8-4.67-2.4M67.83,72.79c0,2.25-.82,4.09-2.47,5.54-1.65,1.44-3.86,2.16-6.63,2.16-2.59,0-5.11-.83-7.54-2.48l1.14-2.28c2.09,1.05,3.99,1.57,5.69,1.57,1.6,0,2.85-.35,3.75-1.06.9-.7,1.44-1.69,1.44-2.94,0-1.57-1.1-2.92-3.11-4.05-1.86-1.02-5.57-3.15-5.57-3.15-2.01-1.47-3.02-3.04-3.02-5.64,0-2.15.75-3.88,2.26-5.2,1.51-1.32,3.45-1.98,5.83-1.98s4.7.66,6.71,1.96l-1.02,2.28c-1.72-.73-3.42-1.1-5.1-1.1-1.36,0-2.41.33-3.14.98-.74.65-1.19,1.49-1.19,2.51,0,1.57,1.12,2.93,3.19,4.08,1.88,1.02,5.69,3.19,5.69,3.19,2.07,1.47,3.1,3.03,3.1,5.6"/>
  <path class="st1" d="M112.77,44.75c-2.56-.07-4.55.19-6.21.9-.48.19-1.25.19-1.31.8.26.26.29.67.52,1.03.38.64,1.05,1.5,1.66,1.95.67.51,1.35,1.02,2.05,1.47,1.25.77,2.66,1.22,3.87,1.99.71.45,1.41,1.02,2.12,1.51.35.26.57.67,1.02.83v-.1c-.23-.29-.29-.7-.51-1.03l-.96-.93c-.93-1.25-2.08-2.34-3.33-3.23-1.03-.71-3.27-1.67-3.68-2.85l-.07-.07c.7-.07,1.54-.32,2.21-.52,1.09-.29,2.08-.22,3.2-.51.51-.13,1.02-.29,1.54-.45v-.29c-.58-.58-.99-1.34-1.6-1.89-1.63-1.41-3.43-2.79-5.28-3.94-.99-.64-2.27-1.06-3.33-1.6-.38-.19-1.02-.29-1.25-.61-.57-.7-.9-1.63-1.31-2.47-.93-1.76-1.83-3.71-2.62-5.57-.58-1.25-.93-2.49-1.63-3.65-3.3-5.44-6.88-8.74-12.39-11.98-1.18-.67-2.59-.96-4.1-1.31l-2.4-.13c-.51-.22-1.03-.83-1.47-1.12-1.83-1.15-6.53-3.65-7.88-.35-.87,2.08,1.28,4.13,2.02,5.19.54.73,1.25,1.57,1.63,2.4.23.54.29,1.12.51,1.7.51,1.41.99,2.98,1.67,4.29.35.67.73,1.38,1.18,1.98.26.35.7.51.8,1.09-.45.64-.48,1.6-.74,2.4-1.15,3.62-.7,8.1.93,10.76.51.8,1.73,2.56,3.36,1.89,1.44-.58,1.12-2.4,1.54-4,.1-.39.03-.64.22-.89v.06c.45.9.9,1.76,1.31,2.66.99,1.57,2.72,3.2,4.16,4.29.77.58,1.38,1.57,2.34,1.92v-.1h-.06c-.19-.29-.48-.42-.73-.64-.58-.58-1.22-1.28-1.67-1.92-1.34-1.79-2.53-3.78-3.59-5.83-.52-.99-.96-2.08-1.38-3.07-.19-.38-.19-.96-.52-1.15-.48.7-1.18,1.31-1.54,2.18-.61,1.38-.67,3.08-.9,4.84l-.13.06c-1.02-.26-1.38-1.31-1.76-2.21-.96-2.28-1.12-5.93-.29-8.55.22-.67,1.19-2.79.8-3.42-.19-.61-.83-.96-1.19-1.44-.41-.61-.87-1.38-1.15-2.05-.77-1.79-1.15-3.78-1.98-5.57-.39-.83-1.06-1.7-1.6-2.47-.61-.86-1.28-1.47-1.76-2.5-.16-.35-.38-.93-.13-1.31.06-.26.19-.35.45-.42.41-.35,1.6.1,2.02.29,1.19.48,2.18.93,3.17,1.6.45.32.93.93,1.5,1.09h.67c1.02.22,2.18.06,3.14.35,1.7.55,3.23,1.35,4.61,2.21,4.19,2.66,7.65,6.44,9.99,10.95.38.74.55,1.41.9,2.18.67,1.57,1.51,3.17,2.18,4.71.67,1.5,1.31,3.04,2.28,4.29.48.67,2.4,1.02,3.27,1.38.64.29,1.63.54,2.21.89,1.09.67,2.17,1.44,3.2,2.18.51.38,2.11,1.18,2.21,1.83M80.1,16.92c-.44,0-.88.05-1.31.16v.06h.06c.26.51.71.87,1.03,1.31.26.51.48,1.02.73,1.54l.06-.06c.45-.32.68-.83.68-1.6-.19-.23-.22-.45-.39-.67-.19-.32-.6-.48-.86-.74"/>
  <path class="st0" d="M115.82,80.13h.66v-3.25h-1l-.81,2.22-.88-2.22h-.96v3.25h.63v-2.47h.04l.92,2.47h.48l.92-2.47v2.47h0ZM110.47,80.13h.7v-2.7h.92v-.55h-2.58v.55h.96v2.7s0,0,0,0Z"/>
</svg>