<?xml version="1.0" encoding="UTF-8"?>
<svg id="Layer_1" xmlns="http://www.w3.org/2000/svg" version="1.1" viewBox="0 0 120 90">
  <!-- Generator: Adobe Illustrator 30.0.0, SVG Export Plug-In . SVG Version: 2.1.1 Build 123)  -->
  <defs>
    <style>
      .st0 {
        fill: #9e0732;
      }
    </style>
  </defs>
  <path class="st0" d="M44.62,70.3c-.42-.49-.99-.88-1.71-1.18s-1.65-.45-2.8-.45h-1.4v11.17h2.38c1.63,0,2.8-.52,3.52-1.56s1.08-2.55,1.08-4.52c0-.61-.07-1.22-.22-1.82-.15-.6-.43-1.14-.85-1.63Z"/>
  <path class="st0" d="M92.94,59.64V23.01c0-1.12-.13-1.95-.81-2.62L75.1,3.35c-.51-.51-1.22-.81-1.94-.81H30.67c-1.74,0-3.61,1.34-3.61,4.28v52.81h65.87ZM72.44,7.51c0-.67.81-1.01,1.28-.53l14.78,14.78c.47.47.14,1.28-.53,1.28h-15.53V7.51ZM34.38,21.58h24.89v17.57h2.93v-5.86h5.86v-8.78h2.93v8.78h5.86v5.86h8.78v2.93h-8.78v5.86h-5.86v8.78h-2.93v-8.78h-5.86v-5.86h-2.93v4.49h-24.89v-24.98Z"/>
  <path class="st0" d="M27.06,62.57v21.96c0,1.48,1.79,2.93,3.61,2.93h58.66c1.82,0,3.61-1.45,3.61-2.93v-21.96H27.06ZM47.82,76.92c-.26.86-.59,1.58-.99,2.16s-.85,1.04-1.35,1.37-.98.58-1.45.75c-.47.17-.89.27-1.28.32-.39.04-.67.07-.86.07h-5.58v-14.75h4.44c1.24,0,2.33.2,3.27.59s1.72.92,2.34,1.57,1.08,1.4,1.39,2.23c.31.83.46,1.69.46,2.57,0,1.21-.13,2.25-.39,3.11ZM66.26,81.68h-3.12l-2.42-11.13-2.58,11.13h-3.14l-3.74-14.83h2.72l2.6,12.73,2.8-12.73h2.72l2.6,12.73,2.82-12.73h2.72l-3.98,14.83ZM84.26,79.69c-.31.39-.65.7-1.03.95s-.78.45-1.2.61-.85.27-1.3.34-.89.1-1.33.1c-.88,0-1.69-.16-2.43-.48s-1.39-.79-1.94-1.42-.99-1.41-1.3-2.36-.47-2.04-.47-3.28.16-2.33.47-3.27c.31-.94.75-1.72,1.3-2.35.55-.63,1.2-1.1,1.95-1.43s1.55-.49,2.42-.49c.8,0,1.55.13,2.24.4s1.31.67,1.86,1.2l-1.66,1.48c-.32-.39-.69-.67-1.1-.84s-.84-.26-1.28-.26c-.49,0-.96.09-1.41.28s-.85.5-1.2.95-.63,1.02-.83,1.73c-.2.71-.31,1.57-.32,2.6.01,1,.12,1.87.31,2.6s.46,1.33.8,1.8.73.81,1.16,1.04.89.34,1.37.34c.15,0,.34-.01.59-.03s.49-.05.74-.1.48-.11.71-.19.39-.19.5-.34v-3.64h-2.5v-1.64h4.88v5.71Z"/>
</svg>