<?xml version="1.0" encoding="UTF-8"?>
<svg id="Layer_1" xmlns="http://www.w3.org/2000/svg" version="1.1" xmlns:xlink="http://www.w3.org/1999/xlink" viewBox="0 0 120 90">
  <!-- Generator: Adobe Illustrator 30.0.0, SVG Export Plug-In . SVG Version: 2.1.1 Build 123)  -->
  <defs>
    <style>
      .st0 {
        fill: url(#linear-gradient);
      }
    </style>
    <linearGradient id="linear-gradient" x1="43.95" y1="61.22" x2="44.09" y2="61.17" gradientTransform="translate(-35156 29417.38) scale(800 -480)" gradientUnits="userSpaceOnUse">
      <stop offset="0" stop-color="#2298bd"/>
      <stop offset="1" stop-color="#0ed7b5"/>
    </linearGradient>
  </defs>
  <path class="st0" d="M60,11c-14.22,0-23.11,7.11-26.67,21.33,5.33-7.11,11.56-9.78,18.67-8,4.06,1.01,6.96,3.96,10.17,7.22,5.23,5.31,11.28,11.45,24.5,11.45,14.22,0,23.11-7.11,26.67-21.33-5.33,7.11-11.56,9.78-18.67,8-4.06-1.01-6.96-3.96-10.17-7.22-5.23-5.31-11.28-11.45-24.5-11.45ZM33.33,43c-14.22,0-23.11,7.11-26.67,21.33,5.33-7.11,11.56-9.78,18.67-8,4.06,1.01,6.96,3.96,10.17,7.22,5.23,5.31,11.28,11.45,24.5,11.45,14.22,0,23.11-7.11,26.67-21.33-5.33,7.11-11.56,9.78-18.67,8-4.06-1.01-6.96-3.96-10.17-7.22-5.23-5.31-11.28-11.45-24.5-11.45Z"/>
</svg>