<?xml version="1.0" encoding="UTF-8"?>
<svg id="Layer_1" xmlns="http://www.w3.org/2000/svg" version="1.1" viewBox="0 0 120 90">
  <!-- Generator: Adobe Illustrator 30.0.0, SVG Export Plug-In . SVG Version: 2.1.1 Build 123)  -->
  <defs>
    <style>
      .st0 {
        fill: #5c2d91;
      }

      .st1, .st2 {
        fill: #fff;
      }

      .st2 {
        isolation: isolate;
        opacity: .1;
      }
    </style>
  </defs>
  <circle class="st0" cx="58.87" cy="45.07" r="44.2"/>
  <path class="st2" d="M28.23,13.3c-18.23,16.24-19.83,44.18-3.59,62.41,16.24,18.23,44.18,19.83,62.41,3.59,1.27-1.13,2.47-2.33,3.59-3.59L28.23,13.3Z"/>
  <path class="st1" d="M24.89,57.85c-.52,0-1.02-.2-1.38-.58-.37-.36-.57-.86-.57-1.38,0-.52.2-1.02.57-1.38.36-.38.86-.6,1.38-.59.52,0,1.02.21,1.38.59.37.36.58.86.58,1.38,0,.52-.2,1.02-.58,1.38-.36.37-.86.58-1.38.58Z"/>
  <path class="st1" d="M52.34,57.51h-3.62l-12.94-20.08c-.32-.5-.59-1.02-.8-1.57h-.11c.12,1.15.17,2.3.14,3.45v18.21h-2.94v-25.18h3.83l12.6,19.73c.52.82.87,1.38,1.02,1.69h.07c-.15-1.23-.21-2.47-.18-3.7v-17.71h2.94v25.18Z"/>
  <path class="st1" d="M72.26,57.51h-13.39v-25.18h12.76v2.67h-9.75v8.37h9.09v2.65h-9.09v8.73h10.39v2.76Z"/>
  <path class="st1" d="M92.02,34.99h-7.32v22.52h-2.94v-22.52h-7.24v-2.67h17.5v2.67Z"/>
</svg>